<?xml version="1.0" standalone="no"?>
<!DOCTYPE svg PUBLIC "-//W3C//DTD SVG 20010904//EN"
 "http://www.w3.org/TR/2001/REC-SVG-20010904/DTD/svg10.dtd">
<svg version="1.0" xmlns="http://www.w3.org/2000/svg"
 width="512.000000pt" height="512.000000pt" viewBox="0 0 512.000000 512.000000"
 preserveAspectRatio="xMidYMid meet">
<metadata>
Created by potrace 1.16, written by Peter Selinger 2001-2019
</metadata>
<g transform="translate(0.000000,512.000000) scale(0.100000,-0.100000)"
fill="#000000" stroke="none">
<path d="M2211 4724 c-525 -71 -1036 -352 -1373 -753 -274 -327 -449 -722
-503 -1134 -20 -153 -19 -421 1 -579 80 -624 440 -1195 970 -1541 373 -243
756 -357 1204 -357 421 0 792 103 1144 317 553 337 932 909 1026 1552 27 186
27 456 0 642 -68 465 -278 885 -610 1220 -132 133 -215 200 -367 299 -273 178
-583 293 -901 334 -153 20 -446 20 -591 0z m612 -84 c595 -88 1122 -426 1457
-935 168 -255 278 -549 324 -866 21 -140 21 -437 1 -578 -101 -701 -534 -1300
-1160 -1606 -307 -150 -589 -215 -935 -215 -347 0 -631 66 -935 215 -267 132
-517 330 -705 560 -245 300 -411 691 -460 1085 -17 140 -12 408 10 558 53 360
193 692 419 987 64 84 252 275 341 348 302 244 684 407 1070 456 132 17 426
12 573 -9z"/>
</g>
</svg>
