<?xml version="1.0" standalone="no"?>
<!DOCTYPE svg PUBLIC "-//W3C//DTD SVG 20010904//EN"
 "http://www.w3.org/TR/2001/REC-SVG-20010904/DTD/svg10.dtd">
<svg version="1.0" xmlns="http://www.w3.org/2000/svg"
 width="48.000000pt" height="48.000000pt" viewBox="0 0 48.000000 48.000000"
 preserveAspectRatio="xMidYMid meet">
<metadata>
Created by potrace 1.16, written by Peter Selinger 2001-2019
</metadata>
<g transform="translate(0.000000,48.000000) scale(0.100000,-0.100000)"
fill="#000000" stroke="none">
<path d="M145 441 c-171 -79 -166 -333 7 -405 48 -20 128 -20 176 0 176 73
176 335 0 408 -50 21 -134 20 -183 -3z m62 -113 l33 -32 35 34 35 34 27 -27
27 -27 -34 -35 -34 -35 34 -35 34 -35 -27 -27 -27 -27 -35 34 -35 34 -35 -34
-35 -34 -27 27 -27 27 34 35 34 35 -34 35 -34 35 24 25 c13 14 26 25 29 25 3
0 20 -14 38 -32z"/>
</g>
</svg>
